<?xml version="1.0" encoding="utf-8"?>
<!-- Generator: Adobe Illustrator 25.0.0, SVG Export Plug-In . SVG Version: 6.00 Build 0)  -->
<svg version="1.1" id="Layer_1" xmlns="http://www.w3.org/2000/svg" xmlns:xlink="http://www.w3.org/1999/xlink" x="0px" y="0px"
	 viewBox="0 0 929.2 365.8" style="enable-background:new 0 0 929.2 365.8;" xml:space="preserve">
<style type="text/css">
	.st0{fill:url(#SVGID_1_);}
	.st1{fill:url(#SVGID_2_);}
	.st2{fill:url(#SVGID_3_);}
	.st3{fill:url(#SVGID_4_);}
	.st4{fill:url(#SVGID_5_);}
	.st5{fill:url(#SVGID_6_);}
	.st6{fill:url(#SVGID_7_);}
	.st7{fill:url(#SVGID_8_);}
	.st8{fill:url(#SVGID_9_);}
	.st9{fill:#0F3644;}
</style>
<g>
	
		<linearGradient id="SVGID_1_" gradientUnits="userSpaceOnUse" x1="769.2343" y1="958.91" x2="793.8542" y2="958.91" gradientTransform="matrix(1 0 0 -1 0 1002)">
		<stop  offset="0" style="stop-color:#0F3144"/>
		<stop  offset="0.82" style="stop-color:#44616F"/>
	</linearGradient>
	<polygon class="st0" points="793.9,61.6 769.2,86.2 769.2,24.6 793.9,0 	"/>
	
		<linearGradient id="SVGID_2_" gradientUnits="userSpaceOnUse" x1="695.3643" y1="915.825" x2="719.9943" y2="915.825" gradientTransform="matrix(1 0 0 -1 0 1002)">
		<stop  offset="0" style="stop-color:#0F3144"/>
		<stop  offset="0.82" style="stop-color:#44616F"/>
	</linearGradient>
	<polygon class="st1" points="720,110.8 695.4,123.1 695.4,73.9 720,49.2 	"/>
	
		<linearGradient id="SVGID_3_" gradientUnits="userSpaceOnUse" x1="732.3043" y1="939.28" x2="756.9243" y2="939.28" gradientTransform="matrix(1 0 0 -1 0 1002)">
		<stop  offset="0" style="stop-color:#0F3144"/>
		<stop  offset="0.82" style="stop-color:#44616F"/>
	</linearGradient>
	<polygon class="st2" points="756.9,86.2 733.8,100.8 732.3,49.2 756.9,24.6 	"/>
	
		<linearGradient id="SVGID_4_" gradientUnits="userSpaceOnUse" x1="695.3643" y1="829.645" x2="793.8542" y2="829.645" gradientTransform="matrix(1 0 0 -1 0 1002)">
		<stop  offset="0" style="stop-color:#0F3144"/>
		<stop  offset="0.82" style="stop-color:#44616F"/>
	</linearGradient>
	<polygon class="st3" points="793.9,283.2 695.4,283.2 695.4,123.1 793.9,61.6 	"/>
	
		<linearGradient id="SVGID_5_" gradientUnits="userSpaceOnUse" x1="806.1642" y1="958.91" x2="830.7842" y2="958.91" gradientTransform="matrix(1 0 0 -1 0 1002)">
		<stop  offset="0" style="stop-color:#0F3144"/>
		<stop  offset="0.82" style="stop-color:#44616F"/>
	</linearGradient>
	<polygon class="st4" points="830.8,73.9 806.2,61.6 806.2,36.9 830.8,12.3 	"/>
	
		<linearGradient id="SVGID_6_" gradientUnits="userSpaceOnUse" x1="843.0942" y1="940.445" x2="862.7943" y2="940.445" gradientTransform="matrix(1 0 0 -1 0 1002)">
		<stop  offset="0" style="stop-color:#0F3144"/>
		<stop  offset="0.82" style="stop-color:#44616F"/>
	</linearGradient>
	<polygon class="st5" points="862.8,86.2 843.1,76.3 843.1,56.6 862.8,36.9 	"/>
	
		<linearGradient id="SVGID_7_" gradientUnits="userSpaceOnUse" x1="670.9443" y1="727.931" x2="929.2692" y2="727.931" gradientTransform="matrix(1 0 0 -1 0 1002)">
		<stop  offset="0" style="stop-color:#0F3144"/>
		<stop  offset="0.82" style="stop-color:#44616F"/>
	</linearGradient>
	<path class="st6" d="M929.1,285.1c-2-1.5,1-10.9-0.1-13.3c-1.8-3.7-7.2-4.5-11.3-5.8c-30-9.8-62-12.2-93.2-7
		c-20.4,3.5-40.2,10.2-60.6,14c-30.9,5.7-62.6,4.7-93-3.1l1.4,15.3c34.8,11.1,72.6,6.4,108.5-0.5S853,268.9,889.4,272
		C903.5,273.2,917.9,276.5,929.1,285.1z"/>
	
		<linearGradient id="SVGID_8_" gradientUnits="userSpaceOnUse" x1="670.9443" y1="690.9951" x2="929.2692" y2="690.9951" gradientTransform="matrix(1 0 0 -1 0 1002)">
		<stop  offset="0" style="stop-color:#0F3144"/>
		<stop  offset="0.82" style="stop-color:#44616F"/>
	</linearGradient>
	<path class="st7" d="M929.1,322c-2-1.5,1-10.9-0.1-13.3c-1.8-3.7-7.2-4.5-11.3-5.8c-30-9.8-62-12.2-93.2-7
		c-20.4,3.5-40.2,10.2-60.6,14c-30.9,5.7-62.6,4.7-93-3l1.4,15.3c34.8,11.1,72.6,6.4,108.5-0.5S853,305.9,889.3,309
		C903.5,310.2,917.9,313.4,929.1,322z"/>
	
		<linearGradient id="SVGID_9_" gradientUnits="userSpaceOnUse" x1="670.9443" y1="654.0651" x2="929.2692" y2="654.0651" gradientTransform="matrix(1 0 0 -1 0 1002)">
		<stop  offset="0" style="stop-color:#0F3144"/>
		<stop  offset="0.82" style="stop-color:#44616F"/>
	</linearGradient>
	<path class="st8" d="M929.1,358.9c-2-1.5,1-10.9-0.1-13.3c-1.8-3.7-7.2-4.5-11.3-5.8c-30-9.8-62-12.2-93.2-7
		c-20.4,3.5-40.2,10.2-60.6,14c-30.9,5.7-62.6,4.7-93-3.1l1.4,15.3c34.8,11.1,72.6,6.4,108.5-0.5s72.1-15.8,108.5-12.7
		C903.5,347.1,917.9,350.3,929.1,358.9z"/>
	<path class="st9" d="M70.8,322.1c-11.8,0.2-21.2,9.9-21.1,21.7s9.9,21.2,21.7,21.1c11.7-0.2,21.1-9.7,21.1-21.4
		C92.4,331.6,82.7,322,70.8,322.1z"/>
	<path class="st9" d="M126.1,322.1c-11.8,0.2-21.2,9.9-21.1,21.7c0.2,11.8,9.9,21.2,21.7,21.1c11.7-0.2,21.1-9.7,21.1-21.4
		C147.6,331.6,138,322,126.1,322.1z"/>
	<circle class="st9" cx="359" cy="81.8" r="21.4"/>
	<circle class="st9" cx="302.5" cy="81.8" r="21.4"/>
	<path class="st9" d="M427.1,270.5c-11.8,0-21.4,9.6-21.4,21.4c0,11.8,9.6,21.4,21.4,21.4c11.8,0,21.4-9.5,21.4-21.3
		C448.4,280.1,438.9,270.5,427.1,270.5z"/>
	<path class="st9" d="M554,270.5c-11.8,0.2-21.2,9.9-21.1,21.7c0.2,11.8,9.9,21.2,21.7,21.1c11.7-0.2,21.1-9.7,21.1-21.3
		c0-11.8-9.6-21.4-21.5-21.4C554.2,270.5,554.1,270.5,554,270.5z"/>
	<path class="st9" d="M558.6,120v98.6h-82.1V120h-42.7v98.6h-81.5V120h-42.7v98.6h-42.1l-22.6-49.1c-15-31.1-42.7-44.6-73.3-43.3
		c-24.7,0.9-44.9,13.4-57.4,35.1c-11.9,21.1-12.5,43-12.2,49.1c-0.1,4.3,0.4,8.6,1.5,12.8c3.7,13.4,14.4,18.3,22.3,18.3h33.6
		c7.2,0.1,12.9,6,12.8,13.1c-0.3,7-5.8,12.6-12.8,12.8H49.5c-5.5,0-6.7-10.7-7-11.6c-1.8-15,5.8-39.1,34.8-46.4l-10.7-41.2
		c-22.9,6.1-41.5,19.2-53.7,38.1C2.8,222.9-1.8,242.7,0.6,261c3.7,29,23.2,48.5,48.8,48.5h109.9c30.5,0.6,55.7-23.7,56.3-54.2
		c0.6-30.5-23.7-55.7-54.2-56.3c-0.3,0-0.6,0-0.9,0H145c1.2-7,4-15.3,9.1-21.4c4.9-6.1,10.7-9.2,18.9-9.5
		c14.3-0.2,27.4,7.7,33.9,20.5l25.6,53.4c5,9.7,14.5,16.2,25.3,17.5v0.2h306.5c20.4,0,36.9-16.4,36.9-36.8c0,0,0-0.1,0-0.1V120
		H558.6z"/>
	<circle class="st9" cx="482.6" cy="291.8" r="21.4"/>
</g>
</svg>
