<?xml version="1.0" encoding="utf-8"?>
<!-- Generator: Adobe Illustrator 25.0.0, SVG Export Plug-In . SVG Version: 6.00 Build 0)  -->
<svg version="1.1" id="Layer_1" xmlns="http://www.w3.org/2000/svg" xmlns:xlink="http://www.w3.org/1999/xlink" x="0px" y="0px"
	 viewBox="0 0 961.7 319.8" style="enable-background:new 0 0 961.7 319.8;" xml:space="preserve">
<style type="text/css">
	.st0{fill:#0F3644;}
	.st1{fill:url(#SVGID_1_);}
	.st2{fill:url(#SVGID_2_);}
	.st3{fill:url(#SVGID_3_);}
	.st4{fill:url(#SVGID_4_);}
	.st5{fill:url(#SVGID_5_);}
	.st6{fill:url(#SVGID_6_);}
	.st7{fill:url(#SVGID_7_);}
	.st8{fill:url(#SVGID_8_);}
	.st9{fill:url(#SVGID_9_);}
</style>
<g>
	<g>
		<g>
			<path class="st0" d="M344.3,99.9c35.7,0,58.2,27.5,58.2,72.5c0,44.8-22.2,72.2-58.8,72.2c-24.7,0-35.2-16.2-35.2-16.2v6.3
				c0,4.7-1.9,6.6-6.6,6.6h-26.6c-4.7,0-6.6-1.9-6.6-6.6V42c0-4.7,1.9-6.6,6.6-6.6H302c4.7,0,6.6,1.9,6.6,6.6v73.3
				C308.5,115.3,319.3,99.9,344.3,99.9z M333.5,212.3c18.1,0,29.1-13.5,29.1-39.8c0-26.6-11-40.1-29.4-40.1
				c-15.7,0-24.7,12.9-24.7,12.9v55.5C308.5,200.7,318.4,212.3,333.5,212.3z"/>
			<path class="st0" d="M542.8,163.1v71.7c0,4.4-1.9,6.6-6.3,6.6h-26.9c-4.4,0-6.6-2.2-6.6-6.6V229c0,0-15.4,15.7-38.7,15.7
				c-24.7,0-44.5-17-44.5-43.7c0-26.9,20-45,51.6-45c18.7,0,31.6,6.6,31.6,6.6v-5.2c0-14-7.1-25-26.9-24.7c-10.2,0-20.9,2.8-30.2,6
				c-3.3,0.8-7.1,0.8-8.2-3.3l-5.2-18.1c-1.1-3.9-0.8-6.6,3-8c12.6-5.5,31.3-9.3,47.8-9.3C524.7,99.9,542.8,123.6,542.8,163.1z
				 M503,205.7v-19.8c0,0-10.7-5.2-22.5-5.2c-14,0.3-21.7,7.4-21.7,18.1c0,11.3,9.1,18.1,19.8,18.4C492.3,217.2,503,205.7,503,205.7
				z"/>
			<path class="st0" d="M554.4,308.4c-4.4-2.2-4.4-5.2-3.3-8l7.7-18.4c1.1-2.5,3.3-4.7,6.6-3c4.1,1.4,8.5,2.8,13.2,2.8
				c10.4,0,15.9-6.6,19.8-16.2l9.1-25.3l-48.9-131c-1.7-4.4,0.5-6,5.2-6h26.9c3.6,0,5.8,0.8,7.1,4.9l29.7,90.1l29.7-90.1
				c1.1-4.1,3.6-4.9,7.1-4.9h26.7c3.6,0,7.1,1.4,5.5,6l-61.2,165.4c-10.2,26.6-27.7,40.7-52.7,40.7
				C569.5,315.3,560.1,311.4,554.4,308.4z"/>
			<path class="st0" d="M727.7,191.7v-56.9H715c-4.4,0-6.6-1.9-6.6-6.6v-18.4c0-4.7,2.2-6.6,6.6-6.6h12.6V68.9
				c0-4.7,2.2-6.6,6.6-6.6h26.9c4.4,0,6.6,1.9,6.6,6.6v34.3h28.8c4.7,0,6.6,1.9,6.6,6.6v18.4c0,4.7-1.9,6.6-6.6,6.6h-28.8v58
				c0,11,7.1,18.4,17,18.4c5.8,0,11.3-2.5,15.1-6.9c3-3.3,5.8-2.8,8.8,0.3l11.5,11.3c3.8,3.8,2.5,6.6-1.4,11
				c-8,8.8-21.2,17-40.4,16.8C748.3,243.6,727.7,222.4,727.7,191.7z"/>
			<path class="st0" d="M818.3,308.4c-4.4-2.2-4.4-5.2-3.3-8l7.7-18.4c1.1-2.5,3.3-4.7,6.6-3c4.1,1.4,8.5,2.8,13.2,2.8
				c10.4,0,15.9-6.6,19.8-16.2l9.1-25.3l-48.9-131c-1.7-4.4,0.5-6,5.2-6h26.9c3.6,0,5.8,0.8,7.1,4.9l29.7,90.1l29.7-90.1
				c1.1-4.1,3.6-4.9,7.1-4.9h26.7c3.6,0,7.1,1.4,5.5,6l-61.2,165.4c-10.2,26.6-27.7,40.7-52.7,40.7
				C833.4,315.3,824.1,311.4,818.3,308.4z"/>
		</g>
	</g>
	<g>
		<g>
			
				<linearGradient id="SVGID_1_" gradientUnits="userSpaceOnUse" x1="85.05" y1="964.715" x2="106.36" y2="964.715" gradientTransform="matrix(1 0 0 -1 0 1002)">
				<stop  offset="0" style="stop-color:#44616F"/>
				<stop  offset="0.8231" style="stop-color:#0F3144"/>
			</linearGradient>
			<polygon class="st1" points="106.4,53.3 85,74.6 85,21.3 106.4,0 			"/>
			
				<linearGradient id="SVGID_2_" gradientUnits="userSpaceOnUse" x1="21.13" y1="927.43" x2="42.44" y2="927.43" gradientTransform="matrix(1 0 0 -1 0 1002)">
				<stop  offset="0" style="stop-color:#44616F"/>
				<stop  offset="0.8231" style="stop-color:#0F3144"/>
			</linearGradient>
			<polygon class="st2" points="42.4,95.9 21.1,106.5 21.1,63.9 42.4,42.6 			"/>
			
				<linearGradient id="SVGID_3_" gradientUnits="userSpaceOnUse" x1="53.09" y1="947.73" x2="74.4" y2="947.73" gradientTransform="matrix(1 0 0 -1 0 1002)">
				<stop  offset="0" style="stop-color:#44616F"/>
				<stop  offset="0.8231" style="stop-color:#0F3144"/>
			</linearGradient>
			<polygon class="st3" points="74.4,74.6 54.4,87.2 53.1,42.6 74.4,21.3 			"/>
			
				<linearGradient id="SVGID_4_" gradientUnits="userSpaceOnUse" x1="21.13" y1="852.86" x2="106.36" y2="852.86" gradientTransform="matrix(1 0 0 -1 0 1002)">
				<stop  offset="0" style="stop-color:#44616F"/>
				<stop  offset="0.8231" style="stop-color:#0F3144"/>
			</linearGradient>
			<polygon class="st4" points="106.4,245 21.1,245 21.1,106.5 106.4,53.3 			"/>
			
				<linearGradient id="SVGID_5_" gradientUnits="userSpaceOnUse" x1="117.01" y1="964.72" x2="138.32" y2="964.72" gradientTransform="matrix(1 0 0 -1 0 1002)">
				<stop  offset="0" style="stop-color:#44616F"/>
				<stop  offset="0.8231" style="stop-color:#0F3144"/>
			</linearGradient>
			<polygon class="st5" points="138.3,63.9 117,53.3 117,32 138.3,10.6 			"/>
			
				<linearGradient id="SVGID_6_" gradientUnits="userSpaceOnUse" x1="148.97" y1="948.735" x2="166.01" y2="948.735" gradientTransform="matrix(1 0 0 -1 0 1002)">
				<stop  offset="0" style="stop-color:#44616F"/>
				<stop  offset="0.8231" style="stop-color:#0F3144"/>
			</linearGradient>
			<polygon class="st6" points="166,74.6 149,66 149,49 166,32 			"/>
		</g>
		
			<linearGradient id="SVGID_7_" gradientUnits="userSpaceOnUse" x1="0" y1="764.8482" x2="223.5389" y2="764.8482" gradientTransform="matrix(1 0 0 -1 0 1002)">
			<stop  offset="0" style="stop-color:#44616F"/>
			<stop  offset="0.8231" style="stop-color:#0F3144"/>
		</linearGradient>
		<path class="st7" d="M223.4,246.7c-1.7-1.3,0.9-9.5-0.1-11.5c-1.6-3.2-6.3-3.9-9.8-5c-8.5-2.8-17.2-4.9-26-6.3
			c-18.1-2.9-36.6-2.8-54.6,0.2c-17.7,3-34.8,8.8-52.4,12.1c-26.6,5-54.3,4.1-80.5-2.7c0.4,4.4,0.8,8.8,1.2,13.2
			c30.1,9.6,62.8,5.5,93.9-0.4s62.4-13.7,93.9-11C201.2,236.4,213.7,239.2,223.4,246.7z"/>
		
			<linearGradient id="SVGID_8_" gradientUnits="userSpaceOnUse" x1="0" y1="732.8882" x2="223.5389" y2="732.8882" gradientTransform="matrix(1 0 0 -1 0 1002)">
			<stop  offset="0" style="stop-color:#44616F"/>
			<stop  offset="0.8231" style="stop-color:#0F3144"/>
		</linearGradient>
		<path class="st8" d="M223.4,278.6c-1.7-1.3,0.9-9.5-0.1-11.5c-1.6-3.2-6.3-3.9-9.8-5c-8.5-2.8-17.2-4.9-26-6.3
			c-18.1-2.9-36.6-2.8-54.6,0.2c-17.7,3-34.8,8.8-52.4,12.1c-26.6,5-54.3,4.1-80.5-2.7c0.4,4.4,0.8,8.8,1.2,13.2
			c30.1,9.6,62.8,5.5,93.9-0.4s62.4-13.7,93.9-11C201.2,268.4,213.7,271.2,223.4,278.6z"/>
		
			<linearGradient id="SVGID_9_" gradientUnits="userSpaceOnUse" x1="0" y1="700.9282" x2="223.5389" y2="700.9282" gradientTransform="matrix(1 0 0 -1 0 1002)">
			<stop  offset="0" style="stop-color:#44616F"/>
			<stop  offset="0.8231" style="stop-color:#0F3144"/>
		</linearGradient>
		<path class="st9" d="M223.4,310.6c-1.7-1.3,0.9-9.5-0.1-11.5c-1.6-3.2-6.3-3.9-9.8-5c-8.5-2.8-17.2-4.9-26-6.3
			c-18.1-2.9-36.6-2.8-54.6,0.2c-17.7,3-34.8,8.8-52.4,12.1c-26.6,5-54.3,4.1-80.5-2.7c0.4,4.4,0.8,8.8,1.2,13.2
			c30.1,9.6,62.8,5.5,93.9-0.4s62.4-13.7,93.9-11C201.2,300.4,213.7,303.2,223.4,310.6z"/>
	</g>
</g>
</svg>
