<svg id="Flag" xmlns="http://www.w3.org/2000/svg" xmlns:xlink="http://www.w3.org/1999/xlink" viewBox="0 0 256 256"><defs><style>.cls-1{fill:none;}.cls-2{clip-path:url(#clip-path);}.cls-3{fill:#b03;}.cls-4{fill:#fff;}.cls-5{fill:#b29122;}</style><clipPath id="clip-path"><circle class="cls-1" cx="128" cy="128" r="124.7" transform="translate(-1.29 1.31) rotate(-0.58)"/></clipPath></defs><g class="cls-2"><rect class="cls-3" x="-18.82" y="0.02" width="301.71" height="86.54"/><rect class="cls-4" x="-18.82" y="85.99" width="301.71" height="86.54"/><rect x="-18.82" y="171.95" width="301.71" height="86.54"/></g><path class="cls-4" d="M128.3,128.88l25.22,23.42-1.8-42.52c-.26-6.45-5.86-5-9.93-2.64-4.12,2.64-8.82,2.64-13.79.89-5,1.75-9.67,1.75-13.79-.89-4.07-2.33-9.66-3.81-9.93,2.64l-1.8,42.52,25.82-23.42Z"/><path class="cls-5" d="M153.52,152.53a.23.23,0,0,1-.16-.06L128.29,129.2l-25.65,23.27a.25.25,0,0,1-.26,0,.25.25,0,0,1-.13-.22l1.8-42.52c.16-4,2.36-4.85,4.17-4.85a13.86,13.86,0,0,1,6.11,2,13.09,13.09,0,0,0,7.18,2.08,19.34,19.34,0,0,0,6.41-1.2.22.22,0,0,1,.16,0,19.38,19.38,0,0,0,6.41,1.2,13.1,13.1,0,0,0,7.17-2.07,13.82,13.82,0,0,1,6.12-2c1.81,0,4,.84,4.17,4.85l1.8,42.52a.24.24,0,0,1-.14.22Zm-45.3-47.14c-2.34,0-3.59,1.48-3.71,4.4l-1.77,42,25.4-23a.24.24,0,0,1,.32,0l24.8,23-1.77-41.95c-.12-2.92-1.37-4.4-3.71-4.4a12.79,12.79,0,0,0-5.88,2,13.5,13.5,0,0,1-7.41,2.14,19.78,19.78,0,0,1-6.49-1.2,19.78,19.78,0,0,1-6.49,1.2,13.48,13.48,0,0,1-7.42-2.15A12.81,12.81,0,0,0,108.22,105.39Z"/><g id="w"><path class="cls-5" d="M107.18,108.3l-1.74,41.36-3,2.64,1.8-42.52a8.83,8.83,0,0,1,2.9-1.48Z"/><path class="cls-5" d="M110.72,111.26l-1.47,34.59-3,3,1.79-39.95c.58.58,2.33,2,2.64,2.33Z"/><path class="cls-5" d="M114,113.9l-1.17,28.85-2.37,2.33,1.48-32.93c.58.59,1.74,1.43,2.06,1.75Z"/><path class="cls-5" d="M117.43,115.38,116.27,140,114,141.86l1.16-27.38a8.55,8.55,0,0,0,2.32.9Z"/><path class="cls-5" d="M120.66,115.38l-.85,20.49-2.38,2.33.9-22.56a6.26,6.26,0,0,0,2.33-.26Z"/></g><g id="w-2" data-name="w"><path class="cls-5" d="M148.81,108.3l1.75,41.36,3,2.64-1.8-42.52a8.86,8.86,0,0,0-2.91-1.48Z"/><path class="cls-5" d="M145.27,111.26l1.48,34.59,3,3-1.8-39.95c-.58.58-2.32,2-2.64,2.33Z"/><path class="cls-5" d="M142.05,113.9l1.16,28.85,2.38,2.33-1.48-32.93c-.58.59-1.74,1.43-2.06,1.75Z"/><path class="cls-5" d="M138.56,115.38,139.72,140l2.33,1.89-1.16-27.38a8.61,8.61,0,0,1-2.33.9Z"/><path class="cls-5" d="M135.34,115.38l.85,20.49,2.37,2.33-.89-22.56a6.24,6.24,0,0,1-2.33-.26Z"/></g><path class="cls-5" d="M129.16,133.55l3.54,16.11-1.16,1.16-1.22-.9-2-14.37.84,14.37L128,151.4l-1.16-1.48.84-14.37-2,14.37-1.22.9-1.16-1.16,3.54-16.11Z"/><path class="cls-5" d="M128,151.72,126.64,150l.55-9.52L125.86,150l-1.42,1.05-1.36-1.36,3.6-16.37h2.64l3.6,16.37-1.36,1.36L130.14,150l-1.34-9.56.56,9.52Zm-1-1.86,1,1.22,1-1.22-.84-14.29.39,0,2,14.28,1,.75,1-1L129,133.74h-2l-3.49,15.86,1,1,1-.75,2-14.28.39,0Z"/><g id="b"><path class="cls-4" d="M120.07,126.47l-7,24.93,9.67,1.48,4.12-18.75-6.77-7.66Z"/><path class="cls-5" d="M122.72,153.1h0L113,151.62a.25.25,0,0,1-.15-.1.22.22,0,0,1,0-.18l7-24.93a.2.2,0,0,1,.17-.15.21.21,0,0,1,.21.06L127,134a.23.23,0,0,1,0,.19l-4.12,18.76A.21.21,0,0,1,122.72,153.1Zm-9.39-1.88,9.22,1.41,4-18.44-6.42-7.28Z"/><path class="cls-5" d="M118.6,137.27h0a.2.2,0,0,1-.17-.14l-.85-2.06.44-.17.71,1.74L123,132.5l.33.34-4.57,4.36A.23.23,0,0,1,118.6,137.27Z"/><path class="cls-5" d="M121.87,139h-.06a.21.21,0,0,1-.17-.2l-1-9,.47-.05.89,8.38,2.55-3.34.37.29-2.9,3.8A.25.25,0,0,1,121.87,139Z"/><rect class="cls-5" x="124.17" y="136.34" width="0.47" height="5.7" transform="translate(-33.82 40.12) rotate(-16.16)"/><path class="cls-5" d="M123.38,149.71l-.91-4.33-1.88,2.93a.25.25,0,0,1-.23.1.22.22,0,0,1-.19-.16l-1-3.05-1.84,3a.25.25,0,0,1-.24.11.24.24,0,0,1-.19-.17l-1.53-5.62a.22.22,0,0,1,.06-.22l3-3.09a.23.23,0,0,1,.22-.07.24.24,0,0,1,.17.17l.81,2.9,1.87-2.53a.23.23,0,0,1,.24-.09.24.24,0,0,1,.18.18l.8,4.4,2.91-4.42.39.26-3.18,4.82,1,4.74Zm-4.15-5.3h0a.23.23,0,0,1,.2.16l1,3.07,1.87-2.92-.77-4.29-1.83,2.48a.26.26,0,0,1-.23.09.25.25,0,0,1-.19-.17l-.83-3-2.63,2.71,1.35,5,1.83-3A.23.23,0,0,1,119.23,144.41Z"/><path class="cls-5" d="M121,153l-1-3-1.48,2.52a.23.23,0,0,1-.23.11.23.23,0,0,1-.19-.16L117,148.6,115.3,151l-.38-.28,2-2.74a.23.23,0,0,1,.41.07l1.12,3.71,1.47-2.5a.23.23,0,0,1,.23-.11.21.21,0,0,1,.19.16l1.17,3.54Z"/></g><g id="b-2" data-name="b"><path class="cls-4" d="M135.92,126.47l7,24.93-9.67,1.48-4.12-18.75,6.76-7.66Z"/><path class="cls-5" d="M133.28,153.1a.21.21,0,0,1-.21-.17L129,134.17A.2.2,0,0,1,129,134l6.76-7.66a.2.2,0,0,1,.21-.06.19.19,0,0,1,.16.15l7,24.93a.19.19,0,0,1,0,.18.23.23,0,0,1-.15.1l-9.67,1.48Zm-3.88-18.91,4,18.44,9.22-1.41-6.85-24.31Z"/><path class="cls-5" d="M137.4,137.27a.2.2,0,0,1-.16-.07l-4.57-4.36.32-.34,4.32,4.13.72-1.74.43.17-.84,2.06a.22.22,0,0,1-.17.14Z"/><path class="cls-5" d="M134.13,139a.25.25,0,0,1-.19-.09l-2.9-3.8.37-.29,2.55,3.34.89-8.38.47.05-1,9a.22.22,0,0,1-.17.2Z"/><rect class="cls-5" x="128.74" y="138.96" width="5.7" height="0.47" transform="translate(-38.72 226.86) rotate(-73.85)"/><path class="cls-5" d="M132.61,149.71l-.46-.1,1-4.74L130,140.05l.39-.26,2.91,4.42.8-4.4a.21.21,0,0,1,.17-.18.24.24,0,0,1,.25.09l1.86,2.53.82-2.9a.23.23,0,0,1,.16-.17.24.24,0,0,1,.23.07l3,3.09a.22.22,0,0,1,.06.22l-1.53,5.62a.25.25,0,0,1-.2.17.24.24,0,0,1-.23-.11l-1.85-3-1,3.05a.24.24,0,0,1-.19.16.23.23,0,0,1-.23-.1l-1.88-2.93Zm1-5,1.88,2.92,1-3.07a.21.21,0,0,1,.19-.16.24.24,0,0,1,.23.11l1.83,3,1.35-5-2.63-2.71-.84,3a.23.23,0,0,1-.18.17.24.24,0,0,1-.23-.09l-1.83-2.48Z"/><path class="cls-5" d="M135,153l-.44-.14,1.16-3.54a.24.24,0,0,1,.43-.05l1.47,2.5,1.11-3.71a.24.24,0,0,1,.19-.16.23.23,0,0,1,.23.09l2,2.74-.38.28L139,148.6l-1.13,3.77a.24.24,0,0,1-.19.16.22.22,0,0,1-.23-.11L136,149.9Z"/></g><path class="cls-4" d="M128,162.54c7.34,0,14.37-.58,18.49-1.74,1.74-.31,1.74-1.21,1.74-2.38,1.75-.58.85-2.64,2.06-2.64-1.21.32-1.48-2.06-3-1.74,0-2.06-2.06-2.32-3.8-1.74-3.49,1.16-9.67,1.42-15.53,1.42-5.87-.26-12-.26-15.53-1.42-1.75-.58-3.81-.32-3.81,1.74-1.48-.32-1.74,2.06-3,1.74,1.21,0,.31,2.06,2.06,2.64,0,1.17,0,2.07,1.79,2.38,4.07,1.16,11.1,1.74,18.44,1.74Z"/><path class="cls-5" d="M128,163c-7.87,0-14.62-.64-18.54-1.75-2-.35-2.12-1.42-2.13-2.51a2.45,2.45,0,0,1-1.25-1.85c-.08-.34-.14-.56-.24-.62l-.25,0a.44.44,0,0,1,.12-.86l.26,0c.23,0,.47-.34.72-.66a2.37,2.37,0,0,1,1.57-1.13,2.36,2.36,0,0,1,2.64-2,5.47,5.47,0,0,1,1.7.29c2.85.94,7.42,1.1,12.26,1.28l3.16.13c7.5,0,12.54-.46,15.37-1.41a5.47,5.47,0,0,1,1.7-.29,2.38,2.38,0,0,1,2.65,2,2.37,2.37,0,0,1,1.57,1.13c.25.32.49.63.72.66l.26,0a.44.44,0,0,1,.11.86l-.24,0c-.1.06-.16.28-.24.62a2.47,2.47,0,0,1-1.25,1.85,2.17,2.17,0,0,1-2.08,2.51C142.62,162.34,135.85,163,128,163Zm-21.29-7a3.07,3.07,0,0,1,.22.69c.15.6.27,1.12,1,1.35a.44.44,0,0,1,.3.41c0,1.17,0,1.7,1.44,2h0c3.78,1.08,10.63,1.73,18.32,1.73s14.48-.63,18.37-1.73h0c1.38-.25,1.38-.78,1.38-2a.44.44,0,0,1,.3-.41c.71-.23.83-.75,1-1.35a3.73,3.73,0,0,1,.23-.69,3.8,3.8,0,0,1-.67-.72c-.45-.57-.72-.88-1.19-.78a.41.41,0,0,1-.37-.09.44.44,0,0,1-.16-.34c0-1.3-1-1.57-1.81-1.57a4.6,4.6,0,0,0-1.42.24c-2.93,1-8,1.45-15.67,1.45l-3.17-.12c-4.91-.18-9.54-.35-12.5-1.33a4.66,4.66,0,0,0-1.43-.24c-.82,0-1.8.27-1.8,1.57a.44.44,0,0,1-.16.34.41.41,0,0,1-.37.09c-.47-.1-.75.21-1.19.78A4.15,4.15,0,0,1,106.71,156Z"/><path class="cls-4" d="M118,151.4a29.6,29.6,0,0,0,7.07.32c1.17,0,2,2-.31,2.32a27.88,27.88,0,0,1-7-.32c-1.48-.26-4.7-.84-6.76-1.42-2.06-.9-.58-2.64.58-2.38A39.21,39.21,0,0,0,118,151.4Z"/><path class="cls-5" d="M122.78,154.38a30.64,30.64,0,0,1-5.07-.43c-1.28-.23-4.67-.83-6.78-1.43-1.26-.54-1.24-1.33-1.18-1.64a1.66,1.66,0,0,1,1.58-1.22,1.36,1.36,0,0,1,.29,0,38.57,38.57,0,0,0,6.41,1.47h0a39.57,39.57,0,0,0,5.12.42,15,15,0,0,0,1.87-.11h0a1.44,1.44,0,0,1,1.41,1.32c0,.29,0,1.25-1.67,1.47A16.87,16.87,0,0,1,122.78,154.38Zm-11.45-4.25a1.19,1.19,0,0,0-1.12.85c-.09.43.22.82.87,1.1,2.07.58,5.44,1.19,6.71,1.41a31,31,0,0,0,5,.42,16,16,0,0,0,2-.1c.84-.12,1.3-.47,1.26-1a1,1,0,0,0-.92-.88,14.93,14.93,0,0,1-1.89.11,40.81,40.81,0,0,1-5.22-.43,39.12,39.12,0,0,1-6.48-1.49Z"/><path class="cls-4" d="M138,151.4a29.29,29.29,0,0,1-7,.32c-1.22,0-2.06,2,.26,2.32a27.88,27.88,0,0,0,7-.32c1.48-.26,4.7-.84,6.76-1.42,2.06-.9.58-2.64-.58-2.38A39.21,39.21,0,0,1,138,151.4Z"/><path class="cls-5" d="M133.22,154.38a16.87,16.87,0,0,1-2-.11c-1.62-.22-1.69-1.18-1.67-1.46a1.48,1.48,0,0,1,1.44-1.33,15,15,0,0,0,1.86.11,41.76,41.76,0,0,0,5.13-.42,38.85,38.85,0,0,0,6.41-1.47,1.15,1.15,0,0,1,.31,0,1.66,1.66,0,0,1,1.58,1.22c.06.31.08,1.1-1.15,1.63-2.15.61-5.54,1.21-6.81,1.44A30.64,30.64,0,0,1,133.22,154.38ZM130.93,152a1,1,0,0,0-.94.89c0,.5.43.85,1.26,1a16,16,0,0,0,2,.1,31,31,0,0,0,5-.42c1.27-.22,4.64-.83,6.74-1.42.62-.27.93-.66.84-1.09a1.19,1.19,0,0,0-1.31-.83,39.79,39.79,0,0,1-6.46,1.48,41,41,0,0,1-5.2.43A15.16,15.16,0,0,1,130.93,152Z"/><path class="cls-4" d="M110.72,150.24c-1.79-.32-2.64,1.74-2.06,2.9.27-.58,1.48-.58,1.75-1.16.31-.9-.27-.9.31-1.74Z"/><path class="cls-5" d="M108.66,153.38a.23.23,0,0,1-.2-.13,2.45,2.45,0,0,1,.17-2.28,2,2,0,0,1,2.13-1,.22.22,0,0,1,.18.14.24.24,0,0,1,0,.22c-.27.39-.25.53-.21.75a1.63,1.63,0,0,1-.08.94,1.66,1.66,0,0,1-1,.72c-.32.13-.65.26-.74.46a.26.26,0,0,1-.21.14Zm1.68-2.94a1.56,1.56,0,0,0-1.31.77,2.13,2.13,0,0,0-.28,1.48,3.05,3.05,0,0,1,.7-.35c.32-.12.65-.25.75-.46a1.19,1.19,0,0,0,0-.68A1.11,1.11,0,0,1,110.34,150.44Z"/><path class="cls-4" d="M117.75,155.64c0-1.16,1.16-1,1.16-2.18,0-.58-.31-1.48-.9-1.48a1.25,1.25,0,0,0-1.16,1.16C116.59,154.3,117.75,154.48,117.75,155.64Z"/><path class="cls-5" d="M117.75,155.87a.23.23,0,0,1-.23-.23,1.61,1.61,0,0,0-.45-1,1.64,1.64,0,0,1-.45-1.48,1.49,1.49,0,0,1,1.39-1.37c.74,0,1.14,1,1.14,1.71a1.56,1.56,0,0,1-.66,1.27,1.08,1.08,0,0,0-.51.91A.23.23,0,0,1,117.75,155.87Zm.26-3.66a1,1,0,0,0-.92.93.43.43,0,0,1,0,.05,1.16,1.16,0,0,0,.36,1.12,3.8,3.8,0,0,1,.33.49,1.82,1.82,0,0,1,.41-.42,1.09,1.09,0,0,0,.5-.92C118.68,153,118.4,152.21,118,152.21Z"/><path class="cls-4" d="M126.11,152.3c1.74,0,1.57,2.32.73,3.48,0-.84-1.48-1.16-1.48-1.74,0-.9,1.33-.9.75-1.74Z"/><path class="cls-5" d="M126.84,156h-.08a.24.24,0,0,1-.16-.23c0-.34-.37-.59-.74-.85s-.74-.5-.74-.89a1.28,1.28,0,0,1,.61-1c.32-.26.38-.32.19-.6a.24.24,0,0,1,.19-.37,1.44,1.44,0,0,1,1.37.79,3.32,3.32,0,0,1-.45,3.07A.26.26,0,0,1,126.84,156Zm-.35-3.44a.91.91,0,0,1-.47.81c-.27.22-.43.38-.43.65s.29.34.54.51a2.88,2.88,0,0,1,.76.68,2.7,2.7,0,0,0,.17-2.17A.9.9,0,0,0,126.49,152.58Z"/><path class="cls-4" d="M145.27,150.24c1.8-.32,2.64,1.74,2.06,2.9-.26-.58-1.48-.58-1.74-1.16-.32-.9.26-.9-.32-1.74Z"/><path class="cls-5" d="M147.33,153.38h0a.26.26,0,0,1-.21-.14c-.09-.2-.42-.33-.74-.46a1.66,1.66,0,0,1-1-.7,1.64,1.64,0,0,1-.09-1,.84.84,0,0,0-.21-.75.22.22,0,0,1,0-.22.2.2,0,0,1,.17-.14,2,2,0,0,1,2.14,1,2.45,2.45,0,0,1,.17,2.28A.23.23,0,0,1,147.33,153.38Zm-1.67-2.94a1.11,1.11,0,0,1,.09.76,1.2,1.2,0,0,0,.06.7c.08.19.42.32.74.44a3.19,3.19,0,0,1,.69.35,2.12,2.12,0,0,0-.27-1.48A1.56,1.56,0,0,0,145.66,150.44Z"/><path class="cls-4" d="M138.25,155.64c0-1.16-1.17-1-1.17-2.18,0-.58.32-1.48.9-1.48a1.25,1.25,0,0,1,1.16,1.16c.27,1.16-.89,1.34-.89,2.5Z"/><path class="cls-5" d="M138.25,155.87a.23.23,0,0,1-.24-.23,1.07,1.07,0,0,0-.5-.91,1.56,1.56,0,0,1-.66-1.27c0-.72.39-1.71,1.13-1.71a1.49,1.49,0,0,1,1.4,1.37,1.64,1.64,0,0,1-.45,1.48,1.61,1.61,0,0,0-.45,1A.23.23,0,0,1,138.25,155.87Zm-.27-3.66c-.38,0-.66.75-.66,1.25a1.09,1.09,0,0,0,.5.92,2.35,2.35,0,0,1,.41.42,3.8,3.8,0,0,1,.33-.49,1.22,1.22,0,0,0,.36-1.12.07.07,0,0,1,0-.05A1,1,0,0,0,138,152.21Z"/><path class="cls-4" d="M129.88,152.3c-1.74,0-1.57,2.32-.72,3.48,0-.84,1.48-1.16,1.48-1.74C130.64,153.14,129.3,153.14,129.88,152.3Z"/><path class="cls-5" d="M129.16,156a.24.24,0,0,1-.19-.1,3.32,3.32,0,0,1-.45-3.07,1.42,1.42,0,0,1,1.36-.79.23.23,0,0,1,.21.13.23.23,0,0,1,0,.24c-.19.28-.13.34.19.6a1.29,1.29,0,0,1,.6,1c0,.39-.36.63-.74.89s-.74.51-.74.85a.23.23,0,0,1-.16.23Zm.35-3.44a.85.85,0,0,0-.57.48,2.69,2.69,0,0,0,.16,2.17,2.77,2.77,0,0,1,.77-.68c.25-.17.53-.37.53-.51s-.16-.43-.43-.65A.89.89,0,0,1,129.51,152.58Z"/><path class="cls-4" d="M111.31,150.82a2.83,2.83,0,0,1,1.74.58l-1.75-.58Z"/><path class="cls-5" d="M113.05,151.56h0l-1.73-.58,0,0a.16.16,0,0,1-.06-.21.15.15,0,0,1,.16-.09,3.1,3.1,0,0,1,1.83.6.17.17,0,0,1,.07.14.16.16,0,0,1-.17.16Z"/><path class="cls-4" d="M114.21,151.72a6.38,6.38,0,0,1,2.06.58l-2.06-.58Z"/><path class="cls-5" d="M116.27,152.46h0l-2-.58a.15.15,0,0,1-.1-.06.15.15,0,0,1,0-.19.14.14,0,0,1,.16-.07,6.79,6.79,0,0,1,2.09.58.16.16,0,0,1,.12.16.16.16,0,0,1-.17.16Z"/><path class="cls-4" d="M124.78,152.88a5,5,0,0,0-2.06.26l2.06-.26Z"/><path class="cls-5" d="M122.72,153.31a.15.15,0,0,1-.15-.1.16.16,0,0,1,0-.19,4.36,4.36,0,0,1,2.14-.31h0a.21.21,0,0,1,.17.08.17.17,0,0,1,0,.17.18.18,0,0,1-.15.08l-2,.26Z"/><path class="cls-4" d="M121.55,152.88a2.31,2.31,0,0,0-2.06,0Z"/><path class="cls-5" d="M121.55,153h-2.06a.15.15,0,0,1-.15-.12.17.17,0,0,1,.08-.19,2.64,2.64,0,0,1,1.2-.25,1.66,1.66,0,0,1,1,.28.17.17,0,0,1,0,.18A.18.18,0,0,1,121.55,153Z"/><path class="cls-4" d="M144.69,150.82a3,3,0,0,0-1.74.58Z"/><path class="cls-5" d="M143,151.56a.15.15,0,0,1-.14-.07.18.18,0,0,1,0-.21,3.17,3.17,0,0,1,1.86-.62.17.17,0,0,1,.17.13.19.19,0,0,1-.11.19l-1.75.58Z"/><path class="cls-4" d="M141.79,151.72a6.38,6.38,0,0,0-2.06.58l2.06-.58Z"/><path class="cls-5" d="M139.73,152.46a.15.15,0,0,1-.15-.1.16.16,0,0,1,.07-.21,6.87,6.87,0,0,1,2.11-.59.14.14,0,0,1,.17.07.16.16,0,0,1,0,.2.19.19,0,0,1-.1,0l-2,.58Z"/><path class="cls-4" d="M131.22,152.88a5,5,0,0,1,2.06.26l-2.06-.26Z"/><path class="cls-5" d="M133.28,153.31h0l-2-.26a.18.18,0,0,1-.12,0,.15.15,0,0,1,0-.18.18.18,0,0,1,.17-.1h0a4.77,4.77,0,0,1,2.11.28.17.17,0,0,1-.07.32Z"/><path class="cls-4" d="M134.44,152.88a2.31,2.31,0,0,1,2.06,0Z"/><path class="cls-5" d="M136.5,153h-2.06a.16.16,0,0,1-.16-.16.15.15,0,0,1,.06-.13,1.68,1.68,0,0,1,1-.27,2.68,2.68,0,0,1,1.21.25.17.17,0,0,1,.08.19A.16.16,0,0,1,136.5,153Z"/><path class="cls-5" d="M110.82,155.46a.28.28,0,0,1-.25-.37c.06-.23.24-.36.41-.3s.3.24.3.31-.1.28-.15.28a.08.08,0,0,0-.06,0,.33.33,0,0,1-.25,0Z"/><path class="cls-5" d="M131,156.91a.44.44,0,0,1-.19-.27.52.52,0,0,1,.35-.38.74.74,0,0,1,.3.16.3.3,0,0,1-.05.45.57.57,0,0,1-.41,0Z"/><path class="cls-5" d="M131.18,157.82a.28.28,0,0,1-.23-.3c0-.18,0-.21.2-.31l.13-.07.13.05c.17.08.25.17.26.29a.34.34,0,0,1-.24.32c-.13.06-.13.06-.25,0Z"/><path class="cls-5" d="M112.44,153.81a1,1,0,0,0-.4.17c-.24.06-.52.21-.75.05s-.53,0-.56.26a.39.39,0,0,0,.59.22c.16-.2.57-.31.61,0a7.86,7.86,0,0,0-.28.86,1.29,1.29,0,0,1-.19.47,1,1,0,0,0-.49.1.8.8,0,0,0-.6.33,1.58,1.58,0,0,0-.33.69c0,.26.34.34.57.35l.74.23c.4.09.77.24,1.17.33.58.17,1.2.25,1.78.41l.19.05c.24,0,.37-.22.39-.42.12-.43.21-.86.33-1.29.09-.17.19-.56-.15-.47-.19.11-.35.29-.58.3s-.14.35,0,.48a.9.9,0,0,1-.19.65c-.19.12-.43,0-.63-.07s-.64-.11-.44-.39.08-.45.16-.66a2.85,2.85,0,0,0,.18-.71c-.14-.29-.37.09-.55.12s-.59.13-.34.35,0,.44,0,.64-.31.36-.54.29-.55-.18-.36-.44.12-.42.16-.63.16-.5.26-.76a2,2,0,0,1,.23-.64c0-.25.17-.47.17-.73s-.07-.17-.15-.17Zm-1.32,2.67a.11.11,0,0,1,.08,0c.09,0,.09.12,0,.2a.38.38,0,0,1-.11.07c-.17,0-.22,0-.23-.11s0-.07.13-.12l.13-.05Z"/><path class="cls-5" d="M110.74,158.33c-.19-.17-.16-.3.11-.5s.19-.08.32,0,.21.31,0,.47a.31.31,0,0,1-.23.09.25.25,0,0,1-.23-.1Z"/><path class="cls-5" d="M111.86,158.67a.32.32,0,0,1-.23-.4c.05-.16.07-.18.31-.18s.31,0,.32.27,0,.16-.08.22a.41.41,0,0,1-.32.09Z"/><path class="cls-5" d="M144.67,158.7c-.08-.07-.1-.1-.1-.19s.09-.26.28-.35.35-.1.44.07.12.31,0,.46-.1.09-.29.09-.21,0-.3-.08Z"/><path class="cls-5" d="M113.35,159.12a.3.3,0,0,1-.21-.3.19.19,0,0,1,.1-.21.5.5,0,0,1,.21-.09.25.25,0,0,1,.21,0c.21.15.25.29.13.42a.37.37,0,0,1-.44.13Z"/><path class="cls-5" d="M121.42,159.48s-.09-.06-.1-.1a2,2,0,0,1,.09-.61,2.79,2.79,0,0,1,.07-.58c.07-.34.07-.7.15-1a1.79,1.79,0,0,1,.07-.51,7.17,7.17,0,0,1,.08-.81c0-.1.1-.36.2-.21a3.14,3.14,0,0,0,.53.56c.16.1,0,.23-.1.28a.36.36,0,0,0-.18.38c0,.15-.08.29-.09.45s0,.46,0,.69a3.17,3.17,0,0,0-.07.69c0,.15-.06.28-.06.43a.56.56,0,0,1-.15.43.35.35,0,0,1-.39-.05Z"/><path class="cls-5" d="M132.36,155.87c-.18.14-.34.3-.5.45s.18.26.23.4a3.05,3.05,0,0,1,.07.67,1.5,1.5,0,0,1,.08.63c0,.23-.31.19-.45.31s-.25.26-.39.38a1.53,1.53,0,0,0-.12.6c0,.17-.12.35,0,.5l0,.07c0,.05.13,0,.19,0a1.46,1.46,0,0,0,.55-.06,11.91,11.91,0,0,1,1.35-.1c.27,0,.54-.09.81-.08s.32-.19.31-.36,0-.52-.11-.77a4.15,4.15,0,0,1-.09-.78.23.23,0,0,0-.4-.13c-.12.13-.32.15-.42.31s.23.22.29.39a1.94,1.94,0,0,1,0,.54c.05.22-.19.23-.34.26s-.48.12-.59-.12a2,2,0,0,1-.08-.55c0-.33-.08-.65-.1-1s-.09-.8-.12-1.21c0-.16,0-.44-.26-.39Zm-.23,3h.11v.14l0,.14-.15,0-.15,0-.07-.05c-.08-.06-.06-.14,0-.25a.19.19,0,0,1,.19-.07Z"/><path class="cls-5" d="M121.09,155.49c-.14,0-.31.26-.46.26-.32,0-.28.33,0,.45a1.66,1.66,0,0,1,0,.32c0,.29-.14.52-.1.81s-.12.64-.13,1-.09.67-.15,1-.26.2-.45.12c0-.13,0-.26,0-.39.08-.3-.16-.39-.4-.43a.31.31,0,0,1-.33-.41c.11-.13.39-.1.56-.12.36.08.34-.41.16-.57s-.44-.34-.53-.58a.87.87,0,0,0-.44-.79.94.94,0,0,0-.85.65l-.5.16c-.26.07-.63.52-.27.69.2.06.81.2.54.48a.57.57,0,0,1-.7.19c-.27,0-.57-.13-.56-.44a2.85,2.85,0,0,0-.17-.82c0-.31-.4-.24-.42,0a.49.49,0,0,0,0,.75,1.06,1.06,0,0,1-.11.83c-.07.32-.43.33-.68.43s-.6,0-.43.25a1.74,1.74,0,0,0,.9.11,1,1,0,0,0,.71-.5c.21-.21.55-.1.82-.11s.57.2.85.07c.08-.21.45-.55.56-.19a.45.45,0,0,0,.56.44c.31,0,.2.23.19.42a.82.82,0,0,0,.53.67,1,1,0,0,0,.3,0c.28-.09.57-.21.66-.52a7.16,7.16,0,0,0,.19-.8,8.72,8.72,0,0,0,.16-1.25c.1-.38.08-.79.15-1.17s.09-.58.12-.87-.1-.18-.19-.15ZM118.6,157c.05,0,.08.08.09.2a.25.25,0,0,0,.16.26c.07,0,.06.09,0,.14a.44.44,0,0,1-.25,0,.63.63,0,0,1-.47-.17l-.06-.07.1-.07.21-.19c.1-.1.17-.15.23-.15Z"/><path class="cls-5" d="M142.91,154.12a3,3,0,0,0-.61.1c-.38,0-.57.37-.21.57.23.57.57-.12.93-.07.52.1.57.68.65,1.11a5.3,5.3,0,0,0,.28,1.24c.35.39-.27.64-.53.33s-.71-.54-1-.2c-.33.14-.35.58-.62.71-.45.13-.5-.41-.74-.65s-.63-.33-1-.43c-.16-.32-.08-.87-.41-1.08-.27.11-.78.62-.35.86s-.18.51-.37.76a1.92,1.92,0,0,0-.36,1.09c-.46.26-.55-.29-.61-.63s-.38-.29-.62-.14-.53.48-.77.74a6.09,6.09,0,0,0,0,.74c.08.3.44.16.67.14s.51.23.22.45-.82.12-.76.52a3.11,3.11,0,0,0,.61,0,1.08,1.08,0,0,0,.87-.84c.05-.39.62-.32.92-.4s.85-.14.93.34c.26.28.83.59,1.12.21a.88.88,0,0,0,.41-.83c-.06-.29.47-.3.6-.14.19.32.79.23,1.08,0s.38-.63.82-.63c.66-.2,1.34-.31,2-.56s-.08-.44-.21-.63c-.39-.2-.74.6-1.18.21s-.32-.77-.45-1.15a2.81,2.81,0,0,0-.43-1.48,1.16,1.16,0,0,0-.93-.31Zm-2.51,3.49a.4.4,0,0,1,.19.07.48.48,0,0,1,.27.36c0,.07,0,.08-.13.13a.64.64,0,0,1-.19.07c-.07,0-.23-.13-.23-.18a.58.58,0,0,0-.05-.17c0-.12,0-.12,0-.2S140.36,157.61,140.4,157.61Zm2.41.13a.25.25,0,0,1,.27.13c.07.13,0,.22-.15.29l-.16.06-.13-.08c-.1-.07-.12-.1-.12-.17S142.65,157.75,142.81,157.74Zm-3.29,0s.07,0,.12.06a.29.29,0,0,1,.11.22.88.88,0,0,1,0,.23c0,.08,0,.08-.21.08s-.26,0-.25-.24,0-.18.08-.26A.31.31,0,0,1,139.52,157.77Zm-2,.53a.2.2,0,0,1,.16.16c0,.12,0,.17-.09.22a.45.45,0,0,1-.32,0,.15.15,0,0,1-.07-.07s0-.06,0-.09,0,0,0-.06a.29.29,0,0,1,.05-.1.21.21,0,0,1,.21-.08Zm3.41.44a.23.23,0,0,1,.16.06.12.12,0,0,1,0,.2.74.74,0,0,1-.42,0s0,0,0-.08,0-.08.1-.12a.46.46,0,0,1,.22-.06Z"/><path class="cls-5" d="M134.57,160.51s-.08,0,0-.08a.51.51,0,0,1,.3-.19,1.29,1.29,0,0,0,.51-.41c0-.13.16-.19.15-.32a1.59,1.59,0,0,0,0-.53.61.61,0,0,0-.3-.35c-.1-.08-.25-.1-.28-.23s.09-.22.13-.33.15-.32.24-.47.24,0,.29.09a1.29,1.29,0,0,1,.17.33,1.1,1.1,0,0,1,.25.43c.05.12.14.22.13.36s.09.29.08.44a1.45,1.45,0,0,1-.07.62c-.05.11-.15.17-.22.27a1.34,1.34,0,0,1-.4.27c-.1,0-.17.15-.3.12a2.72,2.72,0,0,1-.57,0s-.06,0-.05,0Z"/><path class="cls-5" d="M132.05,160.68c-.09-.09-.11-.13-.11-.22s0-.13.11-.22.24-.17.52,0,.35.14.38.05.17-.18.32-.18a.36.36,0,0,1,.22.07c.09.08.09.09.09.25s0,.18-.1.28a.24.24,0,0,1-.25.08.28.28,0,0,1-.28-.22c0-.09,0-.11-.08-.05s0,.05-.08.06a.65.65,0,0,0-.3.18.27.27,0,0,1-.19,0,.26.26,0,0,1-.25-.11Z"/><path class="cls-5" d="M124.75,157.4a.59.59,0,0,0-.54.45c.06.28.29.55.14.84.1.37-.28.51-.54.3a5.69,5.69,0,0,0-.47-1.07c-.3-.09-.43.39-.63.55.1.28.4.53.43.88a.88.88,0,0,1-.42.88c-.26.24-.6.16-.91.21-.38.22.27.3.45.31a1.27,1.27,0,0,0,1.07-.3c.28-.14.26-.63.6-.68.58,0,1.16.09,1.74.1.32.08.8,0,1,.2a1,1,0,0,0,.68.82c.18.05.37-.18.56-.22.36-.11.25-.55.46-.73.61,0,1.22,0,1.83,0,.12,0,.15-.16.23-.23a5.36,5.36,0,0,0-.06-.7c-.11-.3,0-.68-.19-.94-.31-.08-.57.2-.88.22a1,1,0,0,0-.64.86c-.2.33-.53-.06-.42-.34a1.51,1.51,0,0,0,0-.37c-.18-.22-.51-.15-.77-.18s-.74-.07-1.11-.06a4.63,4.63,0,0,1-1-.06c-.38,0-.33-.38-.4-.64a.35.35,0,0,0-.23-.07Zm.74,1.36c.13,0,.25,0,.37,0s.33,0,.48,0c.36.06.72.05,1.08.08a.34.34,0,0,1,.23.13v.76c0,.09,0,.22-.05.29a.18.18,0,0,1-.1,0,.38.38,0,0,1-.25-.18c0-.13,0-.26,0-.39s0-.09,0-.12a.48.48,0,0,0-.26-.09l-.93-.05a3.49,3.49,0,0,1-.79,0c-.1,0-.22,0-.28-.13s0-.22.12-.26a.79.79,0,0,1,.37-.07Zm4.15.09c.06,0,.08,0,.11.13a1.27,1.27,0,0,0,0,.18s0,.06-.06.08-.37.06-.43,0a.2.2,0,0,1,.06-.21.59.59,0,0,1,.28-.16Z"/><path class="cls-4" d="M128,138a28,28,0,0,0,11-22.79,5,5,0,0,1-.94.1c-2.52,0-8.53-1.45-9.93-3.28-1.51,1.66-7.65,3.28-10.16,3.28a4.81,4.81,0,0,1-.93-.1A28,28,0,0,0,128,138Z"/><path class="cls-5" d="M128,138.3l-.13-.1a28.42,28.42,0,0,1-11-23V115l.24,0a4.41,4.41,0,0,0,.89.09c2.55,0,8.56-1.61,10-3.2l.17-.19.15.2c1.34,1.75,7.3,3.19,9.77,3.19a4.66,4.66,0,0,0,.9-.09l.23,0,0,.23a28.47,28.47,0,0,1-11.07,23Zm-10.77-22.81A28,28,0,0,0,128,137.76a28.05,28.05,0,0,0,10.79-22.27,4.62,4.62,0,0,1-.74.06c-2.43,0-8.25-1.36-9.95-3.18-1.85,1.73-7.82,3.18-10.14,3.18A4.4,4.4,0,0,1,117.22,115.49Z"/><path class="cls-4" d="M138,116.23h-.31c-2.29,0-7.59-1.17-9.64-2.93-2.14,1.63-7.54,2.93-9.79,2.93l-.31,0c0,.51,0,1,0,1.53a27,27,0,0,0,.92,5.35,26.17,26.17,0,0,0,9,13.69,26.27,26.27,0,0,0,9.06-13.7,27,27,0,0,0,.92-5.35c0-.48.05-1,.05-1.5Z"/><path class="cls-5" d="M128,137l-.11-.08a26.56,26.56,0,0,1-9.1-13.77,26.11,26.11,0,0,1-.92-5.39c0-.39-.06-1-.06-1.54V116l.19,0,.28,0c2.27,0,7.62-1.32,9.69-2.89l.11-.08.1.08c2,1.77,7.41,2.89,9.53,2.89h.48v.18c0,.54,0,1.09-.05,1.51a26.82,26.82,0,0,1-.93,5.39,26.52,26.52,0,0,1-9.12,13.78Zm-9.85-20.59c0,.49,0,1,0,1.32a27.53,27.53,0,0,0,.91,5.33A25.84,25.84,0,0,0,128,136.56a25.88,25.88,0,0,0,8.9-13.52,27.53,27.53,0,0,0,.91-5.33c0-.36,0-.83,0-1.3h-.14c-2.18,0-7.44-1.09-9.65-2.88-2.22,1.6-7.45,2.88-9.78,2.88Z"/><path class="cls-5" d="M124.09,115.12a22.87,22.87,0,0,1-5.8,1.12,3,3,0,0,1-.31,0c0,.51,0,1,0,1.53a27.09,27.09,0,0,0,.91,5.35,26.24,26.24,0,0,0,5.15,9.86V115.12Z"/><path class="cls-5" d="M131.68,115.09v18.14a26.73,26.73,0,0,0,6.28-15.5c0-.48.06-1,.06-1.5h-.31a22.5,22.5,0,0,1-6-1.15Z"/><path class="cls-4" d="M132.53,110.73c.25,0-.33-1.32-.33-1.32.65.67,3.1.83,3.1.83-1.47-.65-2.94-5.56-2.77-9.48s-.56-5.47-1.14-6c-.74-.74-3.1-1.39-4.66-1.48-.88,0-.74.67-.74.67-1.63-.42-3.26-.58-4-.09s-.84,2.77-.33,2.37c1.23-1,2.3-.09,3,1s.61,3.59-.33,6.7a22.44,22.44,0,0,1-3.67,6.52,8.67,8.67,0,0,0,3.51-1.29l-.49,2a12.74,12.74,0,0,0,2.77-1.88L128,110.8a16.14,16.14,0,0,1,1.48-1.55,5.33,5.33,0,0,0,3.1,1.48Z"/><path class="cls-5" d="M123.38,111.54l.48-2a7.62,7.62,0,0,1-3.17,1.06h-.47l.3-.37a22.08,22.08,0,0,0,3.62-6.45c1-3.21.92-5.7.37-6.5-.41-.6-1.06-1.31-1.78-1.31a1.53,1.53,0,0,0-.93.37.36.36,0,0,1-.25.1c-.08,0-.27,0-.36-.33a2.93,2.93,0,0,1,.68-2.5c.68-.45,2.09-.44,3.91,0a.8.8,0,0,1,.14-.32,1,1,0,0,1,.82-.28c1.63.09,4,.77,4.81,1.54s1.37,2.23,1.2,6.21,1.37,8.7,2.64,9.26l-.1.43a10,10,0,0,1-2.64-.51c.24.68.16.81.11.88a.26.26,0,0,1-.23.12h0a5.51,5.51,0,0,1-3.11-1.39,14.82,14.82,0,0,0-1.29,1.37l-.16.21-1.5-1.57a13,13,0,0,1-2.66,1.76Zm1.17-2.93-.51,2.1a12.73,12.73,0,0,0,2.29-1.62l.16-.15,1.45,1.52a16.1,16.1,0,0,1,1.34-1.37l.16-.15.15.16a5.14,5.14,0,0,0,2.76,1.38,7.74,7.74,0,0,0-.36-1l.37-.24a4.81,4.81,0,0,0,2.22.68c-1.33-1.53-2.43-5.72-2.27-9.18.16-4-.61-5.41-1.08-5.89-.69-.69-3-1.32-4.52-1.4h-.06a.5.5,0,0,0-.38.12.37.37,0,0,0-.06.27l.07.35-.34-.09c-1.79-.45-3.25-.5-3.82-.11a1.7,1.7,0,0,0-.48,1,2.62,2.62,0,0,0,0,.91c1.09-.8,2.23-.41,3.27,1.09.73,1.06.6,3.89-.31,6.89a21.56,21.56,0,0,1-3.38,6.19,9.82,9.82,0,0,0,2.89-1.21Z"/><path class="cls-5" d="M124.38,109.25l-.35-.31c1.48-1.64,2.3-7.58,2.31-7.64l.46.06C126.77,101.61,126,107.5,124.38,109.25Z"/><path class="cls-5" d="M126.69,109.37l-.41-.23c1-1.89,1.35-7.92,1.36-8l.46,0C128.09,101.44,127.77,107.38,126.69,109.37Z"/><path class="cls-5" d="M129.21,109.34c-.42-1.17-.42-7.65-.42-7.92h.47c0,1.85.07,6.85.39,7.76Z"/><path class="cls-5" d="M132,109.55c-1.4-2.07-1.74-7.55-1.75-7.79l.46,0c0,.05.35,5.59,1.68,7.54Z"/><path class="cls-5" d="M125.08,98.4a2.87,2.87,0,0,0-.39-1.23c-.73-1.07-1.8-2-3-1,0,0,.42-1.3,1.31-1.34.7,0,2.27.52,3.66,2.88,0,0-1-.23-1.27,0-.47.4-.28.68-.28.68Z"/><path class="cls-5" d="M125,98.44a.34.34,0,0,1,0-.25,2.47,2.47,0,0,0-.34-1c-1-1.41-2-1.75-2.94-1l-.17.14.07-.21c0-.06.44-1.34,1.37-1.39h.08c.89,0,2.37.76,3.63,2.92l.08.13-.15,0a4.47,4.47,0,0,0-.84-.11c-.23,0-.33,0-.37.08a.74.74,0,0,0-.28.42l0,.2Zm-2.3-2.74c.68,0,1.36.48,2,1.43a2.64,2.64,0,0,1,.32.82,1.2,1.2,0,0,1,.24-.28.75.75,0,0,1,.46-.11,4.64,4.64,0,0,1,.73.08c-1.61-2.65-3.26-2.73-3.45-2.73H123c-.63,0-1,.74-1.18,1.09A1.7,1.7,0,0,1,122.73,95.7Z"/><path class="cls-5" d="M121.53,94.59a1.44,1.44,0,0,1,.46-.77c.74-.49,2.37-.33,4,.09,0,0-.14-.71.74-.67,1.56.09,3.93.74,4.66,1.48a2.73,2.73,0,0,1,.55.88h0c-.36-.51-1.38-.48-1.63-.45a6.27,6.27,0,0,0-1.15.16,2.34,2.34,0,0,0-.83.29c-.16.13-.29.6-.53.6-.39,0-.36-.1-.46-.21s-.21-.39-.34-.38c-.4.07-1-.24-1.87-.89a2.53,2.53,0,0,0-2.21-.74,1.71,1.71,0,0,0-1.39.68l0-.07Z"/><path class="cls-5" d="M127.77,96.27c-.33,0-.39-.07-.47-.18a.21.21,0,0,0,0-.06.94.94,0,0,1-.12-.18c0-.08-.11-.17-.15-.17-.42.07-1.08-.23-1.93-.91a2.4,2.4,0,0,0-1.75-.74l-.42,0a1.66,1.66,0,0,0-1.33.64l-.12,0,0-.08a1.5,1.5,0,0,1,.49-.79,2.59,2.59,0,0,1,1.43-.32,11,11,0,0,1,2.53.37.61.61,0,0,1,.13-.41.75.75,0,0,1,.68-.23c1.61.09,4,.75,4.71,1.49a3.12,3.12,0,0,1,.56.9l0,.09h-.16l0,0c-.28-.4-1-.44-1.3-.44a1.09,1.09,0,0,0-.27,0l-.3,0a4.78,4.78,0,0,0-.85.13l-.08,0a2.06,2.06,0,0,0-.72.26.83.83,0,0,0-.15.22C128.08,96.06,128,96.27,127.77,96.27Zm-.78-.72c.11,0,.18.11.26.24l.11.16,0,.07c0,.07.08.12.36.12.12,0,.22-.18.3-.33a1,1,0,0,1,.19-.26,2.23,2.23,0,0,1,.77-.29h.08a4.38,4.38,0,0,1,.87-.14l.29,0,.29,0a2.19,2.19,0,0,1,1.2.29,2.67,2.67,0,0,0-.42-.6c-.71-.71-3.06-1.36-4.61-1.45a.69.69,0,0,0-.58.18.53.53,0,0,0-.09.41l0,.1-.1,0a11.15,11.15,0,0,0-2.59-.39,2.45,2.45,0,0,0-1.36.3,1,1,0,0,0-.35.48,2.1,2.1,0,0,1,1.2-.44l.43,0a2.52,2.52,0,0,1,1.83.77c.81.64,1.44,1,1.82.88Z"/><circle class="cls-4" cx="127.57" cy="95.11" r="0.43"/></svg>