<svg id="Flag" xmlns="http://www.w3.org/2000/svg" xmlns:xlink="http://www.w3.org/1999/xlink" viewBox="0 0 256 256"><defs><style>.cls-1{fill:none;}.cls-2{clip-path:url(#clip-path);}.cls-3{fill:#fff;}.cls-4{fill:#b22234;}.cls-5{fill:#3c3b6e;}</style><clipPath id="clip-path"><circle class="cls-1" cx="128" cy="128" r="124.23"/></clipPath></defs><g class="cls-2"><rect class="cls-3" x="-72.02" y="-1.51" width="574.17" height="300.71"/><rect class="cls-4" x="-72.02" y="-2.64" width="573.69" height="23.79"/><rect class="cls-4" x="-72.02" y="43.89" width="573.69" height="23.79"/><rect class="cls-4" x="-72.02" y="90.42" width="573.69" height="23.79"/><rect class="cls-4" x="-72.02" y="136.95" width="573.69" height="23.79"/><rect class="cls-4" x="-72.02" y="183.48" width="573.69" height="23.79"/><rect class="cls-4" x="-72.02" y="230.01" width="573.69" height="23.79"/><rect class="cls-5" x="-50.95" y="3.64" width="164.74" height="117.47"/><polygon class="cls-3" points="4.16 20.2 5.7 24.99 10.69 24.99 6.66 27.95 8.2 32.75 4.16 29.79 0.13 32.75 1.67 27.95 -2.37 24.99 2.62 24.99 4.16 20.2"/><polygon class="cls-3" points="4.16 43.75 5.7 48.54 10.69 48.54 6.66 51.51 8.2 56.3 4.16 53.34 0.13 56.3 1.67 51.51 -2.37 48.54 2.62 48.54 4.16 43.75"/><polygon class="cls-3" points="4.16 67.3 5.7 72.09 10.69 72.09 6.66 75.06 8.2 79.85 4.16 76.89 0.13 79.85 1.67 75.06 -2.37 72.09 2.62 72.09 4.16 67.3"/><polygon class="cls-3" points="4.16 90.85 5.7 95.64 10.69 95.64 6.66 98.61 8.2 103.4 4.16 100.44 0.13 103.4 1.67 98.61 -2.37 95.64 2.62 95.64 4.16 90.85"/><polygon class="cls-3" points="31.68 20.2 33.23 24.99 38.22 24.99 34.18 27.95 35.72 32.75 31.68 29.79 27.65 32.75 29.19 27.95 25.15 24.99 30.14 24.99 31.68 20.2"/><polygon class="cls-3" points="31.68 43.75 33.23 48.54 38.22 48.54 34.18 51.51 35.72 56.3 31.68 53.34 27.65 56.3 29.19 51.51 25.15 48.54 30.14 48.54 31.68 43.75"/><polygon class="cls-3" points="31.68 67.3 33.23 72.09 38.22 72.09 34.18 75.06 35.72 79.85 31.68 76.89 27.65 79.85 29.19 75.06 25.15 72.09 30.14 72.09 31.68 67.3"/><polygon class="cls-3" points="31.68 90.85 33.23 95.64 38.22 95.64 34.18 98.61 35.72 103.4 31.68 100.44 27.65 103.4 29.19 98.61 25.15 95.64 30.14 95.64 31.68 90.85"/><polygon class="cls-3" points="59.21 20.2 60.75 24.99 65.74 24.99 61.7 27.95 63.24 32.75 59.21 29.79 55.17 32.75 56.71 27.95 52.68 24.99 57.66 24.99 59.21 20.2"/><polygon class="cls-3" points="59.21 43.75 60.75 48.54 65.74 48.54 61.7 51.51 63.24 56.3 59.21 53.34 55.17 56.3 56.71 51.51 52.68 48.54 57.66 48.54 59.21 43.75"/><polygon class="cls-3" points="59.21 67.3 60.75 72.09 65.74 72.09 61.7 75.06 63.24 79.85 59.21 76.89 55.17 79.85 56.71 75.06 52.68 72.09 57.66 72.09 59.21 67.3"/><polygon class="cls-3" points="59.21 90.85 60.75 95.64 65.74 95.64 61.7 98.61 63.24 103.4 59.21 100.44 55.17 103.4 56.71 98.61 52.68 95.64 57.66 95.64 59.21 90.85"/><polygon class="cls-3" points="86.73 20.2 88.27 24.99 93.26 24.99 89.22 27.95 90.77 32.75 86.73 29.79 82.69 32.75 84.24 27.95 80.2 24.99 85.19 24.99 86.73 20.2"/><polygon class="cls-3" points="86.73 43.75 88.27 48.54 93.26 48.54 89.22 51.51 90.77 56.3 86.73 53.34 82.69 56.3 84.24 51.51 80.2 48.54 85.19 48.54 86.73 43.75"/><polygon class="cls-3" points="86.73 67.3 88.27 72.09 93.26 72.09 89.22 75.06 90.77 79.85 86.73 76.89 82.69 79.85 84.24 75.06 80.2 72.09 85.19 72.09 86.73 67.3"/><polygon class="cls-3" points="86.73 90.85 88.27 95.64 93.26 95.64 89.22 98.61 90.77 103.4 86.73 100.44 82.69 103.4 84.24 98.61 80.2 95.64 85.19 95.64 86.73 90.85"/><polygon class="cls-3" points="18.11 8.14 19.65 12.94 24.64 12.94 20.6 15.9 22.14 20.7 18.11 17.73 14.07 20.7 15.61 15.9 11.57 12.94 16.56 12.94 18.11 8.14"/><polygon class="cls-3" points="18.11 31.69 19.65 36.49 24.64 36.49 20.6 39.45 22.14 44.25 18.11 41.28 14.07 44.25 15.61 39.45 11.57 36.49 16.56 36.49 18.11 31.69"/><polygon class="cls-3" points="18.11 55.24 19.65 60.04 24.64 60.04 20.6 63 22.14 67.8 18.11 64.83 14.07 67.8 15.61 63 11.57 60.04 16.56 60.04 18.11 55.24"/><polygon class="cls-3" points="18.11 78.79 19.65 83.59 24.64 83.59 20.6 86.55 22.14 91.35 18.11 88.38 14.07 91.35 15.61 86.55 11.57 83.59 16.56 83.59 18.11 78.79"/><polygon class="cls-3" points="18.11 102.34 19.65 107.14 24.64 107.14 20.6 110.1 22.14 114.9 18.11 111.94 14.07 114.9 15.61 110.1 11.57 107.14 16.56 107.14 18.11 102.34"/><polygon class="cls-3" points="45.45 8.14 46.99 12.94 51.98 12.94 47.94 15.9 49.48 20.7 45.45 17.73 41.41 20.7 42.95 15.9 38.91 12.94 43.9 12.94 45.45 8.14"/><polygon class="cls-3" points="45.45 31.69 46.99 36.49 51.98 36.49 47.94 39.45 49.48 44.25 45.45 41.28 41.41 44.25 42.95 39.45 38.91 36.49 43.9 36.49 45.45 31.69"/><polygon class="cls-3" points="45.45 55.24 46.99 60.04 51.98 60.04 47.94 63 49.48 67.8 45.45 64.83 41.41 67.8 42.95 63 38.91 60.04 43.9 60.04 45.45 55.24"/><polygon class="cls-3" points="45.45 78.79 46.99 83.59 51.98 83.59 47.94 86.55 49.48 91.35 45.45 88.38 41.41 91.35 42.95 86.55 38.91 83.59 43.9 83.59 45.45 78.79"/><polygon class="cls-3" points="45.45 102.34 46.99 107.14 51.98 107.14 47.94 110.1 49.48 114.9 45.45 111.94 41.41 114.9 42.95 110.1 38.91 107.14 43.9 107.14 45.45 102.34"/><polygon class="cls-3" points="72.78 8.14 74.33 12.94 79.32 12.94 75.28 15.9 76.82 20.7 72.78 17.73 68.75 20.7 70.29 15.9 66.25 12.94 71.24 12.94 72.78 8.14"/><polygon class="cls-3" points="72.78 31.69 74.33 36.49 79.32 36.49 75.28 39.45 76.82 44.25 72.78 41.28 68.75 44.25 70.29 39.45 66.25 36.49 71.24 36.49 72.78 31.69"/><polygon class="cls-3" points="72.78 55.24 74.33 60.04 79.32 60.04 75.28 63 76.82 67.8 72.78 64.83 68.75 67.8 70.29 63 66.25 60.04 71.24 60.04 72.78 55.24"/><polygon class="cls-3" points="72.78 78.79 74.33 83.59 79.32 83.59 75.28 86.55 76.82 91.35 72.78 88.38 68.75 91.35 70.29 86.55 66.25 83.59 71.24 83.59 72.78 78.79"/><polygon class="cls-3" points="72.78 102.34 74.33 107.14 79.32 107.14 75.28 110.1 76.82 114.9 72.78 111.94 68.75 114.9 70.29 110.1 66.25 107.14 71.24 107.14 72.78 102.34"/><polygon class="cls-3" points="100.67 8.14 102.22 12.94 107.21 12.94 103.17 15.9 104.71 20.7 100.67 17.73 96.64 20.7 98.18 15.9 94.14 12.94 99.13 12.94 100.67 8.14"/><polygon class="cls-3" points="100.67 31.69 102.22 36.49 107.21 36.49 103.17 39.45 104.71 44.25 100.67 41.28 96.64 44.25 98.18 39.45 94.14 36.49 99.13 36.49 100.67 31.69"/><polygon class="cls-3" points="100.67 55.24 102.22 60.04 107.21 60.04 103.17 63 104.71 67.8 100.67 64.83 96.64 67.8 98.18 63 94.14 60.04 99.13 60.04 100.67 55.24"/><polygon class="cls-3" points="100.67 78.79 102.22 83.59 107.21 83.59 103.17 86.55 104.71 91.35 100.67 88.38 96.64 91.35 98.18 86.55 94.14 83.59 99.13 83.59 100.67 78.79"/><polygon class="cls-3" points="100.67 102.34 102.22 107.14 107.21 107.14 103.17 110.1 104.71 114.9 100.67 111.94 96.64 114.9 98.18 110.1 94.14 107.14 99.13 107.14 100.67 102.34"/></g></svg>